<?xml version="1.0" encoding="utf-8"?>
<!-- Generator: Adobe Illustrator 19.1.0, SVG Export Plug-In . SVG Version: 6.00 Build 0)  -->
<svg version="1.1" id="Layer_1" xmlns="http://www.w3.org/2000/svg" xmlns:xlink="http://www.w3.org/1999/xlink" x="0px" y="0px"
	 viewBox="0 0 1166 306" style="enable-background:new 0 0 1166 306;" xml:space="preserve">
<style type="text/css">
	.st0{fill:#EEE;}
	.st1{fill-rule:evenodd;clip-rule:evenodd;fill:#EEE;}
</style>
<g>
	<path class="st0" d="M31.5,229.5c11.3,1.8,21.2,3.2,29.7,4c8.5,0.8,16,1.2,22.7,1.2c10.6,0,17.8-0.7,21.6-2.1
		c3.8-1.4,5.7-3.8,5.7-7.4c0-2.4-0.6-4.2-1.9-5.3c-1.3-1.1-3.4-1.6-6.3-1.6c-4.2,0-8.8,0.1-13.7,0.2c-1.3,0-2.2,0-2.5,0
		c-16.8,0-28.5-2.6-35.1-7.7c-6.6-5.1-10-13.8-10-26.1c0-9.4,1.6-18.8,4.9-28c3.2-9.2,7.6-16.9,13-22.9c5.2-5.8,12.5-9.9,22.1-12.5
		c9.5-2.6,23-3.8,40.5-3.8c11.2,0,22.9,0.5,35.1,1.6c12.1,1.1,24.5,2.7,37.2,4.9l-11,47.4c-8.2-1.8-15.9-3.2-23.1-4.2
		c-7.2-0.9-13.8-1.4-20-1.4c-14,0-23.5,0.8-28.7,2.4c-5.1,1.6-7.7,4.3-7.7,8.1c0,2.4,0.7,4.1,2.2,5c1.4,0.9,5.3,1.3,11.7,1.3h21.4
		c12.6,0,21.7,2.4,27.4,7.2c5.7,4.8,8.6,12.4,8.6,22.8c0,9.8-1.4,18.7-4.1,26.9c-2.7,8.2-6.5,14.8-11.4,19.9
		c-5.4,5.8-12.6,10-21.7,12.6c-9.1,2.6-20.9,3.9-35.5,3.9c-12.8,0-25.9-0.7-39.2-2c-13.3-1.3-26.8-3.3-40.5-5.9L31.5,229.5z"/>
	<path class="st0" d="M182.1,271.1l35.4-149.4h103.3c11.8,0,20.5,2.9,26.1,8.8c5.6,5.9,8.4,15,8.4,27.4c0,8.6-0.9,17.3-2.6,26.3
		c-1.7,8.9-4,16.5-6.8,22.8c-5.2,11.5-11.6,19.6-19.2,24.1c-7.6,4.6-18.9,6.8-33.8,6.8h-46.6l-7.8,33.2H182.1z M255.1,200.7h17.5
		c8.8,0,15.4-1.8,19.7-5.5c4.3-3.7,6.5-9.3,6.5-16.7c0-4-1.1-6.9-3.4-8.8c-2.3-1.9-5.8-2.8-10.5-2.8h-21.7L255.1,200.7z"/>
	<path class="st0" d="M385.2,121.7h56.3l-22.1,93c-0.5,2.2-0.9,4-1.2,5.6c-0.3,1.6-0.4,2.9-0.4,3.8c0,3.5,0.9,6.2,2.7,8
		c1.8,1.8,4.6,2.7,8.2,2.7c4.7,0,8.5-1.5,11.4-4.6c2.9-3.1,5.1-8,6.6-14.6l22.1-93.8h56.5l-22.5,94.2c-3.2,13.7-6.1,23.4-8.7,29.1
		c-2.6,5.7-5.8,10.2-9.6,13.7c-6.4,5.7-14.6,9.9-24.7,12.6c-10.1,2.7-22.7,4.1-37.9,4.1c-22.3,0-38.3-2.8-48.2-8.4
		c-9.9-5.6-14.8-14.6-14.8-27c0-3.1,0.3-6.6,0.9-10.4c0.6-3.8,1.7-8.8,3.2-15.3L385.2,121.7z"/>
	<path class="st0" d="M513.5,271.1l35.4-149.4h85c6.8,0,12.7,0.2,17.8,0.7c5.1,0.5,8.8,1.1,11,1.9c8,3,13.7,7.6,17.2,13.7
		c3.5,6.2,5.2,14.8,5.2,26c0,4.5-0.3,9.4-1,14.9c-0.7,5.5-1.6,11.4-2.9,17.7c-2.1,10.1-4.6,19.2-7.4,27.1c-2.8,8-5.7,14.4-8.9,19.3
		c-4.2,6.7-8.8,12.2-13.8,16.2c-5,4.1-10.5,7-16.6,8.7c-4.1,1.1-8.3,1.9-12.7,2.5c-4.4,0.5-9.3,0.8-14.7,0.8c-1.5,0-3.6,0-6.4-0.1
		c-2.8-0.1-4.9-0.1-6.3-0.1H513.5z M579.5,229.7h10c6.9,0,12.2-0.6,15.8-1.7c3.6-1.1,6.5-3.1,8.7-5.7c3.3-4.3,6.1-9.8,8.3-16.6
		c2.2-6.8,3.3-13.3,3.3-19.3c0-6.2-1.3-10.4-3.8-12.7c-2.6-2.3-7.6-3.4-15-3.4h-13L579.5,229.7z"/>
	<path class="st0" d="M682.6,271.1L718,121.7h62.9l9.5,64.6c0.2,1.3,0.5,4.1,1,8.3c0.5,4.2,1.2,9.9,2.1,17c1-6.1,2.6-13.8,4.8-23.1
		c0.4-1.6,0.6-2.7,0.8-3.4l15.1-63.4h55.1l-35.5,149.4h-62.3L760,213.8c-0.6-2.9-1.3-6.5-2-10.8c-0.8-4.2-1.6-8.7-2.4-13.5
		c-1,7.1-2.7,15.4-5,24.8v0.3l-13.7,56.5H682.6z"/>
	<path class="st0" d="M858.2,271.1l35.4-149.4h57.1l-35.5,149.4H858.2z"/>
	<path class="st0" d="M939.4,271.1l35.4-149.4h55.6l-8.9,38.7c-0.9,3.7-1.8,7.4-2.7,10.9c-1,3.6-2,7.2-3.2,10.9
		c2.7-4.8,6.1-9.8,10-15.2c0.6-0.8,1-1.3,1.2-1.7l31-43.7h69.3l-64.5,79.4l26.9,70H1028l-14.2-43c-0.2-0.5-0.5-1.5-1-3
		c-1.6-5-2.9-9.5-3.9-13.3c-0.5,3.3-1,6.3-1.5,9.2c-0.6,2.9-1.2,5.7-1.9,8.5l-9.7,41.5H939.4z"/>
</g>
<g>
	<path class="st1" d="M71,42.5"/>
	<path class="st1" d="M68,42.5h825c-4.8,6.4-7.7,11.9-8.8,16.1c-2.4,8.9-0.9,15.8,0.1,19.6c1.9,7.3,7.7,14.9,7.7,14.9H53.6L68,42.5z
		"/>
	<path class="st1" d="M978.5,43.7c0,0,3.9,4.6,6.4,10.5c3,7.1,2.2,16.6,0.9,24.1c-1.3,7.2-7.9,15.5-7.9,15.5H1132l13-50.2H978.5z"/>
	<path class="st1" d="M973.8,68.3c0-21.1-17.1-38.2-38.2-38.2c-21.1,0-38.2,17.1-38.2,38.2s17.1,38.2,38.2,38.2
		C956.7,106.5,973.8,89.4,973.8,68.3z"/>
</g>
</svg>
