<?xml version="1.0" encoding="iso-8859-1"?>
<!-- Generator: Adobe Illustrator 18.0.0, SVG Export Plug-In . SVG Version: 6.00 Build 0)  -->
<!DOCTYPE svg PUBLIC "-//W3C//DTD SVG 1.1//EN" "http://www.w3.org/Graphics/SVG/1.1/DTD/svg11.dtd">
<svg version="1.1" id="Capa_1" xmlns="http://www.w3.org/2000/svg" xmlns:xlink="http://www.w3.org/1999/xlink" x="0px" y="0px"
	 viewBox="0 0 457.903 457.903" style="enable-background:new 0 0 457.903 457.903;" xml:space="preserve">
<g>
	<path d="M393.748,0H213.814c-15.523,0-28.153,12.629-28.153,28.153v102.5c0,15.523,12.629,28.153,28.153,28.153h12.28v25.107
		c0,2.738,1.492,5.258,3.893,6.576c1.126,0.618,2.368,0.924,3.607,0.924c1.403,0,2.804-0.394,4.03-1.174l49.341-31.433h106.782
		c15.523,0,28.153-12.629,28.153-28.153v-102.5C421.9,12.629,409.271,0,393.748,0z M406.9,130.652c0,7.252-5.9,13.153-13.153,13.153
		H284.779c-1.428,0-2.826,0.407-4.03,1.174l-39.655,25.263v-18.937c0-4.142-3.358-7.5-7.5-7.5h-19.78
		c-7.252,0-13.153-5.9-13.153-13.153v-102.5c0-7.252,5.9-13.153,13.153-13.153h179.933C401,15,406.9,20.9,406.9,28.153V130.652z"/>
	<path d="M179.155,227.689c-0.526-1.918-1.793-3.549-3.521-4.533c-1.73-0.984-3.777-1.241-5.696-0.715l-46.991,12.896
		c-1.918,0.526-3.549,1.793-4.533,3.522c-0.984,1.729-1.241,3.777-0.715,5.695c3.879,14.132,16.743,23.435,30.738,23.435
		c2.783,0,5.612-0.368,8.423-1.14c8.208-2.252,15.047-7.566,19.258-14.963S181.407,235.897,179.155,227.689z M163.083,244.466
		c-2.229,3.915-5.849,6.727-10.192,7.919c-6.371,1.749-12.908-0.417-17.042-5.034l29.14-7.997
		C164.64,241.127,164.002,242.851,163.083,244.466z"/>
	<path d="M159.614,299.621c28.863-13.332,48.95-42.535,48.95-76.36c0-46.362-37.718-84.08-84.08-84.08s-84.08,37.718-84.08,84.08
		c0,33.824,20.087,63.028,48.95,76.36c-31.361,13.62-53.352,44.888-53.352,81.201v69.581c0,4.142,3.358,7.5,7.5,7.5h161.963
		c4.142,0,7.5-3.358,7.5-7.5v-69.581C212.965,344.509,190.975,313.241,159.614,299.621z M97.144,312.637l16.347,18.612
		l-20.85,15.551l-7.575-27.943C88.87,316.428,92.909,314.341,97.144,312.637z M124.484,307.341c3.831,0,7.593,0.297,11.267,0.865
		l-11.265,12.831l-11.269-12.831C116.891,307.638,120.653,307.341,124.484,307.341z M151.822,312.636
		c4.234,1.704,8.271,3.79,12.074,6.217l-7.574,27.944l-20.842-15.549L151.822,312.636z M55.404,223.261
		c0-38.091,30.989-69.08,69.08-69.08s69.08,30.989,69.08,69.08s-30.989,69.08-69.08,69.08S55.404,261.352,55.404,223.261z
		 M51.002,380.822c0-20.135,8.146-38.399,21.309-51.685l8.737,32.229c0.649,2.396,2.443,4.316,4.79,5.126
		c0.798,0.276,1.625,0.411,2.448,0.411c1.595,0,3.171-0.509,4.484-1.488l24.213-18.06v95.547H51.002V380.822z M197.965,442.903
		h-65.981v-95.549l24.208,18.061c1.313,0.98,2.89,1.489,4.485,1.489c0.823,0,1.65-0.135,2.448-0.411
		c2.347-0.811,4.141-2.73,4.79-5.127l8.736-32.234c13.166,13.286,21.314,31.553,21.314,51.691V442.903z"/>
	<path d="M150.714,373.03c-1.215-2.88-4.158-4.781-7.297-4.621c-2.925,0.15-5.551,2.048-6.616,4.77
		c-1.068,2.73-0.4,5.957,1.683,8.03c2.369,2.358,6.089,2.842,8.996,1.215C150.787,380.575,152.076,376.505,150.714,373.03
		C150.524,372.58,150.895,373.49,150.714,373.03z"/>
	<path d="M161.784,207.91c6.611,0,9.954-8.325,5.195-12.903c-2.551-2.454-6.574-2.757-9.477-0.744
		c-2.442,1.694-3.673,4.779-3.056,7.69C155.172,205.375,158.282,207.91,161.784,207.91z"/>
	<path d="M119.094,216.21c4.736-4.736,1.036-13.121-5.677-12.791c-6.66,0.328-9.533,8.883-4.499,13.192
		C111.85,219.12,116.369,218.939,119.094,216.21C120.484,214.82,118.745,216.56,119.094,216.21z"/>
	<path d="M365.278,54.918H242.284c-4.142,0-7.5,3.358-7.5,7.5s3.358,7.5,7.5,7.5h122.994c4.142,0,7.5-3.358,7.5-7.5
		S369.42,54.918,365.278,54.918z"/>
	<path d="M365.278,90.917H242.284c-4.142,0-7.5,3.358-7.5,7.5s3.358,7.5,7.5,7.5h122.994c4.142,0,7.5-3.358,7.5-7.5
		S369.42,90.917,365.278,90.917z"/>
</g>
<g>
</g>
<g>
</g>
<g>
</g>
<g>
</g>
<g>
</g>
<g>
</g>
<g>
</g>
<g>
</g>
<g>
</g>
<g>
</g>
<g>
</g>
<g>
</g>
<g>
</g>
<g>
</g>
<g>
</g>
</svg>
